HIERARCHY
ROOT hip
{
	OFFSET 0.000000 0.000000 0.000000 
	CHANNELS 6 Xposition Yposition Zposition Xrotation Zrotation Yrotation
	JOINT abdomen
	{
		OFFSET 0.000000 3.402643 0.000000 
		CHANNELS 3 Xrotation Zrotation Yrotation
		JOINT chest
		{
			OFFSET 0.000000 8.438565 -0.680529 
			CHANNELS 3 Xrotation Zrotation Yrotation
			JOINT neck
			{
				OFFSET 0.000000 10.207942 -0.272212 
				CHANNELS 3 Xrotation Zrotation Yrotation
				JOINT head
				{
					OFFSET 0.000000 3.130431 0.000000 
					CHANNELS 3 Xrotation Zrotation Yrotation
					End Site
					{
						OFFSET 0.000000 3.130435 0.000000 
					}
				}
			}
			JOINT lCollar
			{
				OFFSET 3.470700 6.669187 -0.816635 
				CHANNELS 3 Yrotation Zrotation Xrotation
				JOINT lShldr
				{
					OFFSET 3.198488 0.000000 0.000000 
					CHANNELS 3 Zrotation Yrotation Xrotation
					JOINT lForeArm
					{
						OFFSET 10.139888 0.000000 0.000000 
						CHANNELS 3 Yrotation Zrotation Xrotation
						JOINT lHand
						{
							OFFSET 8.370511 0.000000 0.000000 
							CHANNELS 3 Zrotation Yrotation Xrotation
							End Site
							{
								OFFSET 4.083176 0.000000 0.000000 
							}
						}
					}
				}
			}
			JOINT rCollar
			{
				OFFSET -3.470700 6.669187 -0.816635 
				CHANNELS 3 Yrotation Zrotation Xrotation
				JOINT rShldr
				{
					OFFSET -3.198488 0.000000 0.000000 
					CHANNELS 3 Zrotation Yrotation Xrotation
					JOINT rForeArm
					{
						OFFSET -10.139888 0.000000 0.000000 
						CHANNELS 3 Yrotation Zrotation Xrotation
						JOINT rHand
						{
							OFFSET -8.370511 0.000000 0.000000 
							CHANNELS 3 Zrotation Yrotation Xrotation
							End Site
							{
								OFFSET -4.083176 0.000000 0.000000 
							}
						}
					}
				}
			}
		}
	}
	JOINT lThigh
	{
		OFFSET 5.308129 -1.633274 1.361059 
		CHANNELS 3 Xrotation Zrotation Yrotation
		JOINT lShin
		{
			OFFSET -2.041588 -20.007561 0.000000 
			CHANNELS 3 Xrotation Zrotation Yrotation
			JOINT lFoot
			{
				OFFSET 0.000000 -19.190928 -1.224953 
				CHANNELS 3 Xrotation Yrotation Zrotation
				End Site
				{
					OFFSET 0.000000 -2.449906 4.627600 
				}
			}
		}
	}
	JOINT rThigh
	{
		OFFSET -5.308129 -1.633274 1.361059 
		CHANNELS 3 Xrotation Zrotation Yrotation
		JOINT rShin
		{
			OFFSET 2.041588 -20.007561 0.000000 
			CHANNELS 3 Xrotation Zrotation Yrotation
			JOINT rFoot
			{
				OFFSET 0.000000 -19.190928 -1.224953 
				CHANNELS 3 Xrotation Yrotation Zrotation
				End Site
				{
					OFFSET 0.000000 -2.449906 4.627600 
				}
			}
		}
	}
}
MOTION
Frames: 11
Frame Time: 0.011111
2.500146 52.474979 20.287558 2.388126 6.547230 -0.909692 33.482220 -7.970414 -7.098938 -37.732258 8.056141 -1.523173 -14.922616 -3.347697 -4.093439 26.706413 6.531225 -7.909409 4.570630 -11.838743 2.144267 -65.387520 -31.744343 31.589987 -52.204742 8.171801 9.050458 8.524705 12.647240 -41.907604 -5.057420 16.551065 2.193941 58.168869 11.987622 25.610167 47.719185 -7.153844 7.264192 -8.534408 -12.637552 36.702988 21.362204 -3.613696 -15.221201 -0.105275 -5.950830 -0.693406 -18.639732 5.187112 -1.181462 -36.050125 -8.838883 25.007778 26.395178 5.519831 4.380748 -24.366322 -10.110490 -1.698958 
2.472474 52.448975 20.715641 2.535878 6.579545 -0.686388 33.237717 -7.913216 -7.231433 -37.671959 8.018576 -1.556328 -14.628097 -3.182925 -4.102364 26.446331 6.442126 -7.883408 4.570630 -11.838743 2.144267 -65.402603 -31.821873 31.517355 -52.120773 8.154251 9.010509 8.524705 12.647240 -42.122444 -5.057420 16.551065 2.193941 58.168835 11.801825 25.647635 47.718277 -7.147273 7.257023 -8.534408 -12.637552 36.712746 21.739738 -3.584306 -15.198427 -0.106290 -5.950444 -0.673916 -18.862478 4.962277 -1.201986 -36.423065 -8.897114 26.403759 25.579107 5.559669 4.287343 -25.763783 -10.099452 -2.094011 
2.454804 52.384632 21.155058 2.645256 6.786485 -0.469118 33.093891 -7.973493 -7.370368 -37.749512 7.971976 -1.587354 -14.344963 -3.139633 -4.107908 25.996275 6.337888 -7.913343 4.570630 -11.838743 2.144267 -65.487465 -31.739622 31.622803 -52.025707 8.133903 8.979419 8.524705 12.647240 -42.132217 -5.057420 16.551065 2.193941 58.126904 11.569271 25.556448 47.708580 -7.148922 7.255502 -8.534408 -12.637552 36.585796 22.290030 -3.750257 -15.234452 -0.106294 -5.950629 -0.683668 -19.217344 4.596124 -1.278926 -36.750320 -9.142769 27.443672 24.953501 5.593159 4.189467 -26.557724 -10.140577 -2.335104 
2.414130 52.320953 21.614145 2.704544 6.815914 -0.245756 33.066429 -7.891937 -7.340899 -37.815899 7.882208 -1.587203 -14.289201 -3.360640 -4.124717 25.816916 6.546270 -7.963343 4.570630 -11.838743 2.144267 -65.589317 -31.764147 31.826763 -51.827644 8.098924 8.895605 8.524705 12.647240 -42.161510 -5.057420 16.551065 2.193941 58.140354 11.451239 25.272146 47.656281 -7.131466 7.228985 -8.534408 -12.637552 36.458839 22.834471 -3.682228 -15.201861 -0.105276 -5.950830 -0.693406 -19.476290 4.274911 -1.323781 -36.928223 -9.142006 28.345411 24.540323 5.607862 4.135135 -27.205051 -10.280892 -2.595674 
2.373789 52.267944 22.093239 2.713854 6.710143 -0.073603 33.027668 -7.699970 -7.398339 -37.735653 7.835668 -1.615688 -14.358520 -3.450726 -4.138259 26.067812 6.683107 -7.990075 4.570630 -11.838743 2.144267 -65.625687 -31.860233 31.715769 -51.679924 8.064863 8.835775 8.524705 12.647240 -42.278698 -5.057420 16.551065 2.193941 58.193657 11.526752 25.012587 47.314865 -7.044809 7.097513 -8.534408 -12.637552 36.107281 23.392195 -3.506533 -15.072916 -0.105289 -5.950829 -0.693406 -19.627445 3.983475 -1.390331 -36.887280 -9.045094 28.729235 24.298185 5.617968 4.096694 -27.463457 -10.495262 -2.763092 
2.345783 52.204594 22.587000 2.664638 6.695362 0.027547 32.935963 -7.579205 -7.486342 -37.547794 7.818810 -1.644210 -14.339873 -3.487016 -4.089790 26.110371 6.734483 -7.888142 4.570630 -11.838743 2.144267 -65.737831 -32.040756 31.411924 -51.396725 8.004234 8.714186 8.524705 12.647240 -42.493542 -5.057420 16.551065 2.193941 58.043591 11.485503 25.306887 47.304070 -7.040402 7.097434 -8.534408 -12.637552 36.165874 24.002192 -3.457122 -14.912796 -0.106318 -5.950630 -0.683669 -19.810444 3.642124 -1.486044 -36.700733 -9.084502 28.653009 24.117887 5.621206 4.051423 -27.431173 -10.210078 -2.629943 
2.296440 52.139248 23.062090 2.634921 6.650558 0.149167 32.942810 -7.446885 -7.493040 -37.301014 7.810071 -1.637585 -14.604679 -3.575742 -4.031465 26.113377 6.811462 -7.806788 4.570630 -11.838743 2.144267 -65.861076 -32.387020 31.225918 -51.019897 7.925128 8.561271 8.524705 12.647240 -42.923229 -5.057420 16.551065 2.193941 57.946281 11.695804 25.225973 47.252701 -7.029157 7.078311 -8.534408 -12.637552 35.931496 24.552492 -3.330788 -14.744208 -0.105325 -5.950829 -0.693406 -19.898211 3.397677 -1.561603 -36.440334 -9.083481 28.349409 24.067642 5.618643 4.066039 -27.510889 -9.678985 -2.422664 
2.217093 52.062572 23.511841 2.693906 6.648303 0.410038 32.980587 -7.437440 -7.574832 -37.242519 7.834281 -1.664380 -14.876333 -3.507299 -4.063876 26.188440 6.599957 -7.900871 4.570630 -11.838743 2.144267 -65.938004 -32.637672 31.082241 -50.621647 7.835322 8.401429 8.524705 12.647240 -43.518929 -5.057420 16.551065 2.193941 57.995445 11.879104 24.887913 47.076363 -6.978991 7.005377 -8.534408 -12.637552 35.687355 25.039404 -3.184247 -14.729542 -0.106337 -5.950444 -0.673917 -19.838694 3.314712 -1.601247 -36.232475 -9.133125 27.873695 24.137615 5.621321 4.062916 -26.639606 -9.778296 -2.211704 
2.145411 51.986221 23.972931 2.752855 6.647386 0.631887 32.928688 -7.416563 -7.625539 -37.301044 7.811439 -1.677827 -14.630557 -3.377235 -4.111736 25.873690 6.374613 -8.004785 4.570630 -11.838743 2.144267 -65.999321 -32.654320 30.810871 -50.235695 7.751643 8.241745 8.524705 12.647240 -43.987686 -5.057420 16.551065 2.193941 58.089134 11.786329 24.482075 46.910667 -6.933345 6.941398 -8.534408 -12.637552 35.462749 25.526144 -3.076434 -14.645375 -0.105325 -5.950643 -0.683655 -19.604670 3.301066 -1.637784 -36.033463 -9.179881 27.083273 24.392422 5.597801 4.110279 -26.123035 -8.976911 -1.765076 
2.088734 51.911541 24.472694 2.743615 6.758977 0.753384 32.793880 -7.476485 -7.791677 -37.351471 7.851565 -1.723366 -14.096208 -3.465454 -4.048813 25.614145 6.453961 -7.857100 4.570630 -11.838743 2.144267 -66.042984 -32.407715 30.450891 -49.921795 7.676427 8.113558 8.524705 12.647240 -44.222061 -5.057420 16.551065 2.193941 57.990814 11.419736 24.562531 46.869904 -6.926861 6.931056 -8.534408 -12.637552 35.531109 26.070518 -3.086260 -14.541261 -0.106355 -5.950629 -0.683669 -19.151005 3.135362 -1.746246 -35.750713 -9.336076 26.313595 24.794876 5.588490 4.154102 -25.552057 -7.881130 -1.163454 
2.008718 51.824856 24.958118 2.754493 6.960867 1.029336 32.737900 -7.664280 -8.164520 -37.395214 8.002308 -1.812785 -14.057599 -3.491220 -4.044619 25.789454 6.476253 -7.858598 4.570630 -11.838743 2.144267 -66.092552 -32.248852 30.223156 -49.692932 7.626805 8.024379 8.524705 12.647240 -44.212288 -5.057420 16.551065 2.193941 57.922039 11.237435 24.518923 46.766369 -6.896869 6.885093 -8.534408 -12.637552 35.482277 26.609797 -3.086445 -14.611911 -0.095230 -5.960350 -0.674587 -18.763008 2.884958 -1.856534 -35.525852 -9.521658 25.708179 25.310198 5.558827 4.233415 -24.972481 -7.257191 -0.784857 
